<svg width="25" height="24" viewBox="0 0 25 24" fill="none" xmlns="http://www.w3.org/2000/svg">
<path d="M22.625 16.74V4.67001C22.625 3.47001 21.645 2.58001 20.455 2.68001H20.395C18.295 2.86001 15.105 3.93001 13.325 5.05001L13.155 5.16001C12.865 5.34001 12.385 5.34001 12.095 5.16001L11.845 5.01001C10.065 3.90001 6.885 2.84001 4.785 2.67001C3.595 2.57001 2.625 3.47001 2.625 4.66001V16.74C2.625 17.7 3.405 18.6 4.365 18.72L4.655 18.76C6.825 19.05 10.175 20.15 12.095 21.2L12.135 21.22C12.405 21.37 12.835 21.37 13.095 21.22C15.015 20.16 18.375 19.05 20.555 18.76L20.885 18.72C21.845 18.6 22.625 17.7 22.625 16.74Z" stroke="#000" stroke-width="1.5" stroke-linecap="round" stroke-linejoin="round"/>
<path d="M12.625 5.49001V20.49" stroke="#000" stroke-width="1.5" stroke-linecap="round" stroke-linejoin="round"/>
<path d="M8.375 8.49001H6.125" stroke="#000" stroke-width="1.5" stroke-linecap="round" stroke-linejoin="round"/>
<path d="M9.125 11.49H6.125" stroke="#000" stroke-width="1.5" stroke-linecap="round" stroke-linejoin="round"/>
</svg>
