<svg width="23" height="25" viewBox="0 0 23 25" fill="none" xmlns="http://www.w3.org/2000/svg">
<path d="M23 20.9302H0V18.6047H1.15V10.5012C1.15 4.70116 5.7845 0 11.5 0C17.2155 0 21.85 4.70116 21.85 10.5012V18.6047H23V20.9302ZM3.45 18.6047H19.55V10.5012C19.55 5.98605 15.9459 2.32558 11.5 2.32558C7.0541 2.32558 3.45 5.98605 3.45 10.5012V18.6047ZM8.625 22.093H14.375C14.375 22.864 14.0721 23.6034 13.5329 24.1486C12.9938 24.6937 12.2625 25 11.5 25C10.7375 25 10.0062 24.6937 9.46707 24.1486C8.9279 23.6034 8.625 22.864 8.625 22.093Z" fill="#00425A"/>
</svg>
