<svg width="29" height="29" viewBox="0 0 32 32" fill="none" xmlns="http://www.w3.org/2000/svg">
<path d="M6.74687 23.0257L0 29.771L2.229 32L8.9743 25.2531C11.4841 27.2651 14.6059 28.3594 17.8226 28.3548C25.6485 28.3548 32 22.0033 32 14.1774C32 6.35148 25.6485 0 17.8226 0C9.99665 0 3.64517 6.35148 3.64517 14.1774C3.64059 17.3941 4.73491 20.5159 6.74687 23.0257ZM9.90686 21.8568C7.90767 19.8009 6.79119 17.0451 6.79571 14.1774C6.79571 8.08428 11.731 3.15054 17.8226 3.15054C23.9157 3.15054 28.8495 8.08428 28.8495 14.1774C28.8495 20.269 23.9157 25.2043 17.8226 25.2043C14.9549 25.2088 12.1991 24.0923 10.1432 22.0931L9.90686 21.8568Z" fill="#00425A"/>
</svg>
