<svg width="24" height="25" viewBox="0 0 24 25" fill="none" xmlns="http://www.w3.org/2000/svg">
<path d="M14.3088 25H9.69123C9.3834 25 9.1166 24.8958 8.89086 24.6875C8.66511 24.4792 8.53172 24.2188 8.49067 23.9062L8.12127 21C7.85448 20.8958 7.60328 20.7708 7.36769 20.625C7.13127 20.4792 6.90019 20.3229 6.67444 20.1562L3.99627 21.2812C3.70896 21.3854 3.42164 21.3958 3.13433 21.3125C2.84702 21.2292 2.62127 21.0521 2.45709 20.7812L0.179104 16.75C0.0149254 16.4792 -0.0363806 16.1875 0.0251866 15.875C0.0867537 15.5625 0.240672 15.3125 0.48694 15.125L2.79571 13.3438C2.77519 13.1979 2.76493 13.0571 2.76493 12.9212V12.0775C2.76493 11.9425 2.77519 11.8021 2.79571 11.6562L0.48694 9.875C0.240672 9.6875 0.0867537 9.4375 0.0251866 9.125C-0.0363806 8.8125 0.0149254 8.52083 0.179104 8.25L2.45709 4.21875C2.60075 3.92708 2.82116 3.74458 3.11832 3.67125C3.41631 3.59875 3.70896 3.61458 3.99627 3.71875L6.67444 4.84375C6.90019 4.67708 7.13619 4.52083 7.38246 4.375C7.62873 4.22917 7.875 4.10417 8.12127 4L8.49067 1.09375C8.53172 0.78125 8.66511 0.520833 8.89086 0.3125C9.1166 0.104167 9.3834 0 9.69123 0H14.3088C14.6166 0 14.8834 0.104167 15.1091 0.3125C15.3349 0.520833 15.4683 0.78125 15.5093 1.09375L15.8787 4C16.1455 4.10417 16.3971 4.22917 16.6335 4.375C16.8691 4.52083 17.0998 4.67708 17.3256 4.84375L20.0037 3.71875C20.291 3.61458 20.5784 3.60417 20.8657 3.6875C21.153 3.77083 21.3787 3.94792 21.5429 4.21875L23.8209 8.25C23.9851 8.52083 24.0364 8.8125 23.9748 9.125C23.9132 9.4375 23.7593 9.6875 23.5131 9.875L21.2043 11.6562C21.2248 11.8021 21.2351 11.9425 21.2351 12.0775V12.9212C21.2351 13.0571 21.2146 13.1979 21.1735 13.3438L23.4823 15.125C23.7285 15.3125 23.8825 15.5625 23.944 15.875C24.0056 16.1875 23.9543 16.4792 23.7901 16.75L21.5121 20.75C21.3479 21.0208 21.1173 21.2033 20.8201 21.2975C20.5221 21.3908 20.2295 21.3854 19.9422 21.2812L17.3256 20.1562C17.0998 20.3229 16.8638 20.4792 16.6175 20.625C16.3713 20.7708 16.125 20.8958 15.8787 21L15.5093 23.9062C15.4683 24.2188 15.3349 24.4792 15.1091 24.6875C14.8834 24.8958 14.6166 25 14.3088 25ZM12.0616 16.875C13.2519 16.875 14.2677 16.4479 15.1091 15.5938C15.9506 14.7396 16.3713 13.7083 16.3713 12.5C16.3713 11.2917 15.9506 10.2604 15.1091 9.40625C14.2677 8.55208 13.2519 8.125 12.0616 8.125C10.8507 8.125 9.82955 8.55208 8.99798 9.40625C8.16724 10.2604 7.75187 11.2917 7.75187 12.5C7.75187 13.7083 8.16724 14.7396 8.99798 15.5938C9.82955 16.4479 10.8507 16.875 12.0616 16.875ZM12.0616 14.375C11.5485 14.375 11.1126 14.1925 10.7539 13.8275C10.3943 13.4633 10.2146 13.0208 10.2146 12.5C10.2146 11.9792 10.3943 11.5367 10.7539 11.1725C11.1126 10.8075 11.5485 10.625 12.0616 10.625C12.5746 10.625 13.0109 10.8075 13.3705 11.1725C13.7292 11.5367 13.9086 11.9792 13.9086 12.5C13.9086 13.0208 13.7292 13.4633 13.3705 13.8275C13.0109 14.1925 12.5746 14.375 12.0616 14.375ZM10.7687 22.5H13.2006L13.6315 19.1875C14.2677 19.0208 14.8579 18.7758 15.4022 18.4525C15.9456 18.13 16.4431 17.7396 16.8946 17.2812L19.9422 18.5625L21.1427 16.4375L18.4953 14.4062C18.5979 14.1146 18.6698 13.8071 18.7108 13.4837C18.7519 13.1613 18.7724 12.8333 18.7724 12.5C18.7724 12.1667 18.7519 11.8383 18.7108 11.515C18.6698 11.1925 18.5979 10.8854 18.4953 10.5938L21.1427 8.5625L19.9422 6.4375L16.8946 7.75C16.4431 7.27083 15.9456 6.86958 15.4022 6.54625C14.8579 6.22375 14.2677 5.97917 13.6315 5.8125L13.2313 2.5H10.7994L10.3685 5.8125C9.73228 5.97917 9.14246 6.22375 8.59903 6.54625C8.05478 6.86958 7.5569 7.26042 7.10541 7.71875L4.05784 6.4375L2.85728 8.5625L5.50466 10.5625C5.40205 10.875 5.33022 11.1875 5.28918 11.5C5.24813 11.8125 5.22761 12.1458 5.22761 12.5C5.22761 12.8333 5.24813 13.1562 5.28918 13.4688C5.33022 13.7812 5.40205 14.0938 5.50466 14.4062L2.85728 16.4375L4.05784 18.5625L7.10541 17.25C7.5569 17.7292 8.05478 18.13 8.59903 18.4525C9.14246 18.7758 9.73228 19.0208 10.3685 19.1875L10.7687 22.5Z" fill="#00425A"/>
</svg>
